{"title":"Kites 2010 SCAM {Team DUS}","uid":5579671,"size":349413376,"categoryP":"video","categoryS":"movies","magnet":"?xt=urn:btih:d33df12b0ee22e0507c3942278e3f8a76df58781&amp;dn=Kites+2010+SCAM+%7BTeam+DUS%7D&amp;tr=udp%3A%2F%2Ftracker.openbittorrent.com%3A80&amp;tr=udp%3A%2F%2Fopen.demonii.com%3A1337&amp;tr=udp%3A%2F%2Ftracker.coppersurfer.tk%3A6969&amp;tr=udp%3A%2F%2Fexodus.desync.com%3A6969","seeders":0,"leechers":0,"uploader":"DibyaTPB","files":1,"time":1274492926,"description":" &lt;a href=&quot;http://media.movietalkies.com/posters/bollywood/movies/2010/kites/kites-2010-7b.jpg&quot; rel=&quot;nofollow&quot; target=&quot;_NEW&quot;&gt;http://media.movietalkies.com/posters/bollywood/movies/2010/kites/kites-2010-7b.jpg&lt;/a&gt;\n\nblackpearlworld-DeadMan\nPresents\n************************************************** ***********************\nKites 2010 SCAM {Team DUS}\n************************************************** ***********************\n\n\nFormat                           : MPEG-PS\nFile size                        : 333 MiB\nDuration                         : 1h 51mn\nOverall bit rate                 : 418 Kbps\n\nVideo\nID                               : 224 (0xE0)\nFormat                           : MPEG Video\nFormat version                   : Version 2\nFormat profile                   : Main@Main\nFormat settings, Matrix          : Default\nDuration                         : 1h 51mn\nBit rate mode                    : Variable\nBit rate                         : 273 Kbps\nNominal bit rate                 : 8 000 Kbps\nWidth                            : 352 pixels\nHeight                           : 288 pixels\nDisplay aspect ratio             : 4:3\nFrame rate                       : 25.000 fps\nColorimetry                      : 4:2:0\nScan type                        : Progressive\nBits/(Pixel*Frame)               : 0.108\nStream size                      : 218 MiB (65%)\n\nAudio\nID                               : 192 (0xC0)\nFormat                           : MPEG Audio\nFormat version                   : Version 1\nFormat profile                   : Layer 2\nDuration                         : 1h 51mn\nBit rate mode                    : Constant\nBit rate                         : 128 Kbps\nChannel(s)                       : 2 channels\nSampling rate                    : 44.1 KHz\nResolution                       : 16 bits\nStream size                      : 102 MiB (31%)","torrent":{"xt":"urn:btih:d33df12b0ee22e0507c3942278e3f8a76df58781","amp;dn":"Kites+2010+SCAM+%7BTeam+DUS%7D","amp;tr":["udp%3A%2F%2Ftracker.openbittorrent.com%3A80","udp%3A%2F%2Fopen.demonii.com%3A1337","udp%3A%2F%2Ftracker.coppersurfer.tk%3A6969","udp%3A%2F%2Fexodus.desync.com%3A6969"],"infoHash":"d33df12b0ee22e0507c3942278e3f8a76df58781","infoHashBuffer":{"type":"Buffer","data":[211,61,241,43,14,226,46,5,7,195,148,34,120,227,248,167,109,245,135,129]},"announce":[],"urlList":[]}}